<?xml version="1.0" encoding="UTF-8" standalone="no"?>
<!-- Created with Inkscape (http://www.inkscape.org/) -->

<svg
   xmlns:dc="http://purl.org/dc/elements/1.1/"
   xmlns:cc="http://creativecommons.org/ns#"
   xmlns:rdf="http://www.w3.org/1999/02/22-rdf-syntax-ns#"
   xmlns:svg="http://www.w3.org/2000/svg"
   xmlns="http://www.w3.org/2000/svg"
   xmlns:sodipodi="http://sodipodi.sourceforge.net/DTD/sodipodi-0.dtd"
   xmlns:inkscape="http://www.inkscape.org/namespaces/inkscape"
   width="300"
   height="299.62885"
   id="svg2"
   version="1.1"
   inkscape:version="0.48.2 r9819"
   sodipodi:docname="PyeongChang_2018.svg">
  <defs
     id="defs4" />
  <sodipodi:namedview
     id="base"
     pagecolor="#ffffff"
     bordercolor="#666666"
     borderopacity="1.0"
     inkscape:pageopacity="0.0"
     inkscape:pageshadow="2"
     inkscape:zoom="0.35355339"
     inkscape:cx="1443.1245"
     inkscape:cy="104.19419"
     inkscape:document-units="px"
     inkscape:current-layer="layer1"
     showgrid="false"
     fit-margin-left="0.5"
     fit-margin-top="0.5"
     fit-margin-bottom="0.5"
     fit-margin-right="0.5"
     inkscape:window-width="1920"
     inkscape:window-height="1028"
     inkscape:window-x="-8"
     inkscape:window-y="-8"
     inkscape:window-maximized="1">
    <inkscape:grid
       type="xygrid"
       id="grid2996"
       empspacing="5"
       visible="true"
       enabled="true"
       snapvisiblegridlinesonly="true" />
  </sodipodi:namedview>
  <metadata
     id="metadata7">
    <rdf:RDF>
      <cc:Work
         rdf:about="">
        <dc:format>image/svg+xml</dc:format>
        <dc:type
           rdf:resource="http://purl.org/dc/dcmitype/StillImage" />
        <dc:title />
      </cc:Work>
    </rdf:RDF>
  </metadata>
  <g
     inkscape:label="Layer 1"
     inkscape:groupmode="layer"
     id="layer1"
     transform="translate(-1089.5,-498.23337)">
    <g
       id="g3440"
       transform="matrix(0.42418869,0,0,0.42418869,627.63437,459.13019)">
      <path
         sodipodi:nodetypes="cccccc"
         inkscape:connector-curvature="0"
         id="path3372"
         d="m 1479.0958,178.86253 5.6849,-17.60489 104.6777,33.8021 -1.4674,9.30244 -4.2175,8.30244 z"
         inkscape:transform-center-y="-16.901046"
         inkscape:transform-center-x="52.338841"
         style="fill:#f9b31f;fill-opacity:1;fill-rule:evenodd;stroke:none" />
      <path
         sodipodi:nodetypes="cccccc"
         inkscape:connector-curvature="0"
         id="path3374"
         d="m 1529.3389,299.10296 -14.9548,-10.89052 57.7544,-79.30801 14.8525,-5.04225 7.1024,6.32026 z"
         inkscape:transform-center-y="44.460257"
         inkscape:transform-center-x="32.377241"
         style="fill:#e61c44;fill-opacity:1;fill-rule:evenodd;stroke:none" />
      <path
         sodipodi:nodetypes="cccccc"
         inkscape:connector-curvature="0"
         id="path3376"
         d="m 1659.4709,288.32209 -14.9713,10.86778 -57.5086,-79.22441 0,-16.10328 7.8607,-4.55892 z"
         inkscape:transform-center-y="44.509377"
         inkscape:transform-center-x="-32.309609"
         style="fill:#0079c2;fill-opacity:1;fill-rule:evenodd;stroke:none" />
      <path
         sodipodi:nodetypes="cccccc"
         inkscape:connector-curvature="0"
         id="path3378"
         d="m 1689.2366,161.14253 5.682,17.69954 -93.2019,29.91982 -14.7257,-4.89971 -2.966,-8.94443 z"
         inkscape:transform-center-y="-16.887597"
         inkscape:transform-center-x="-52.60583"
         style="fill:#00963f;fill-opacity:1;fill-rule:evenodd;stroke:none" />
      <path
         style="fill:#000000;stroke:none"
         d="m 1090,542.875 0,56.5 11,0 0,-20 14,0 c 9.8925,0 17.25,-7.7111 17.25,-18.625 0,-10.45379 -5.8501,-17.875 -18.0313,-17.875 z m 11,9.5 9.2812,0 c 6.5472,0 10.2813,3.2751 10.2813,8.8125 0,4.93293 -3.7928,9.1875 -10.5625,9.1875 l -9,0 z"
         id="path3382"
         inkscape:connector-curvature="0"
         sodipodi:nodetypes="ccccsssccssscc" />
      <path
         style="fill:#000000;stroke:none"
         d="m 1134.375,557.36218 12.9375,0 11.125,28.375 9.5625,-28.375 13,0 -19.9375,48.125 c -3.1173,6.42618 -7.4384,12.03125 -17.0625,12.03125 -4.69,0 -7.1875,-1.15625 -7.1875,-1.15625 l 2.1875,-9 c 6.4751,2.05748 10.2129,-0.08 13.3125,-8.8125 z"
         id="path3384"
         inkscape:connector-curvature="0"
         sodipodi:nodetypes="ccccccccccc" />
      <path
         inkscape:connector-curvature="0"
         style="fill:#000000;stroke:none"
         d="m 1199.3125,556 c -12.6503,0.5319 -19.75,9.2834 -19.75,23.0625 0,25.81323 30.1249,25.44175 39.5625,16.3125 l -3.4375,-8.875 C 1202.5987,594.6571 1192,588.75676 1192,582.375 l 27.5,0 0,-7.5625 c 0,-7.95863 -4.2252,-18.8125 -18.9375,-18.8125 -0.4196,0 -0.8419,-0.0172 -1.25,0 z m 1.2187,10.09375 c 5,0 8,3.54114 8,7.28125 l -16.5312,0 c 0,-4.19893 3.9139,-7.28125 8.5312,-7.28125 z"
         id="path3386" />
      <path
         inkscape:connector-curvature="0"
         style="fill:#000000;stroke:none"
         d="m 1246.9062,555.84375 c -12.3382,0 -22.0937,8.45637 -22.0937,23.0625 0,13.8508 9.7218,22.3125 21.75,22.3125 11.3267,0 22.2187,-8.11027 22.2187,-23.03125 0,-12.16474 -7.8143,-22.34375 -21.875,-22.34375 z m -0.2187,10.28125 c 7.0831,0 9.9062,5.94415 9.9062,12.4375 0,7.6555 -4.0223,12.78125 -9.8125,12.78125 -6.396,0 -9.8125,-6.03762 -9.8125,-12.90625 0,-7.55809 3.1384,-12.3125 9.7188,-12.3125 z"
         id="path3388" />
      <path
         style="fill:#000000;stroke:none"
         d="m 1286,599.36218 -11,0 0,-42 10.5139,0 0,4.61872 c 0,0 6.4037,-5.30058 14.0393,-5.30058 10.2743,0 14.4468,7.87955 14.4468,13.68186 l 0,29 -11,0 0,-25 c 0,-3.59531 -2.6918,-7.30936 -8.0884,-7.30936 -5.0215,0 -8.9116,4.69064 -8.9116,4.69064 z"
         id="path3390"
         inkscape:connector-curvature="0"
         sodipodi:nodetypes="ccccccccccccc" />
      <path
         inkscape:connector-curvature="0"
         style="fill:#000000;stroke:none"
         d="m 1338,556.3125 c -8.9274,0 -18.375,6.32373 -18.375,21.59375 0,13.1198 7.0944,21.5 17.4062,21.5 8.4148,0 12.9688,-5.34375 12.9688,-5.34375 l 0,3.3125 c 0,6.23219 -4.6111,10.09375 -11.0313,10.09375 -7.4813,0 -13.7187,-3.3125 -13.7187,-3.3125 l -3.3438,9.96875 c 0,0 7.4393,3.66698 17.3438,3.5 12.4782,0 22.0937,-6.38045 22.0937,-20.0625 l 0,-40.1875 -11.3437,0 0,3 c 0,0 -3.2715,-4.0625 -12,-4.0625 z m 3.0625,10.4375 c 5.995,0 8.9375,4.625 8.9375,4.625 l 0,12.4375 c 0,0 -3.434,5.625 -9.25,5.625 -5.7746,0 -9.4688,-4.72719 -9.4688,-11.59375 0,-6.99471 4.2402,-11.09375 9.7813,-11.09375 z"
         id="path3392" />
      <path
         inkscape:connector-curvature="0"
         style="fill:#000000;stroke:none"
         d="m 1580,556.3125 c -8.9274,0 -18.375,6.32373 -18.375,21.59375 0,13.1198 7.0944,21.5 17.4062,21.5 8.4148,0 12.9688,-5.34375 12.9688,-5.34375 l 0,3.3125 c 0,6.23219 -4.6111,10.09375 -11.0313,10.09375 -7.4813,0 -13.7187,-3.3125 -13.7187,-3.3125 l -3.3438,9.96875 c 0,0 7.4393,3.66698 17.3438,3.5 12.4782,0 22.0937,-6.38045 22.0937,-20.0625 l 0,-40.1875 -11.3437,0 0,3 c 0,0 -3.2715,-4.0625 -12,-4.0625 z m 3.0625,10.4375 c 5.995,0 8.9375,4.625 8.9375,4.625 l 0,12.4375 c 0,0 -3.434,5.625 -9.25,5.625 -5.7746,0 -9.4688,-4.72719 -9.4688,-11.59375 0,-6.99471 4.2402,-11.09375 9.7813,-11.09375 z"
         id="path3394" />
      <path
         sodipodi:nodetypes="ccccccccccccc"
         inkscape:connector-curvature="0"
         id="path3396"
         d="m 1528,599.36218 -11,0 0,-42 10.5139,0 0,4.61872 c 0,0 6.4037,-5.30058 14.0393,-5.30058 10.2743,0 14.4468,7.87955 14.4468,13.68186 l 0,29 -11,0 0,-25 c 0,-3.59531 -2.6918,-7.30936 -8.0884,-7.30936 -5.0215,0 -8.9116,4.69064 -8.9116,4.69064 z"
         style="fill:#000000;stroke:none" />
      <path
         style="fill:#000000;stroke:none"
         d="m 1433.125,599.36218 -11.1563,0 0,-60 10.9827,0 0,22.61872 c 0,0 6.0912,-5.30058 13.7268,-5.30058 10.2743,0 14.4468,7.87955 14.4468,13.68186 l 0,29 -11,0 0,-25 c 0,-3.59531 -2.6918,-7.30936 -8.0884,-7.30936 -5.0215,0 -8.9116,4.69064 -8.9116,4.69064 z"
         id="path3398"
         inkscape:connector-curvature="0"
         sodipodi:nodetypes="ccccccccccccc" />
      <path
         id="path3400"
         d="m 1485.5937,556.3125 c -8.4274,0 -18.9375,6.32373 -18.9375,21.59375 0,13.1198 7.0944,21.5 17.4063,21.5 9.7898,0 13.6562,-4.65625 13.6562,-4.65625 l 0.4688,4.61218 10.1875,0 0,-41.987 -11.3438,-1.8e-4 0,3 c 0,0 -3.1464,-4.0625 -11.4375,-4.0625 z m 2.625,10 c 5.5575,0 8.8125,4.6875 8.8125,4.6875 l 0,13.1875 c 0,0 -3.059,5.25 -8.875,5.25 -6.7746,0 -10.1562,-4.72719 -10.1562,-11.59375 0,-6.99471 4.6776,-11.53125 10.2187,-11.53125 z"
         style="fill:#000000;stroke:none"
         inkscape:connector-curvature="0"
         sodipodi:nodetypes="sssccccccssccsss" />
      <path
         style="fill:#000000;stroke:none"
         d="m 1398.2187,589.54968 c 8.5684,0 14.2188,-3.6875 14.2188,-3.6875 l 3.2058,9.72097 c 0,0 -5.464,4.93528 -18.7996,4.93528 -13.211,0 -27.6846,-8.26958 -27.6846,-30.1821 0,-18.839 11.288,-28.8588 28.1075,-28.8588 10.5538,0 17.2799,4.02167 17.2799,4.02167 l -3.6681,10.38564 c 0,0 -5.3774,-3.75651 -12.2418,-3.75651 -10.8851,0 -16.9264,7.10195 -16.9264,18.03122 0,12.28716 7.6078,19.39013 16.5085,19.39013 z"
         id="path3402"
         inkscape:connector-curvature="0"
         sodipodi:nodetypes="ccccccccccc" />
      <path
         style="fill:#000000;stroke:none"
         d="m 1662.2,599.36218 -40.2,0 0,-5 21,-22 c 3.4462,-3.80959 6.5625,-8.75122 6.5625,-13.25 0,-2.38662 -0.3636,-8.75 -9,-8.75 -4.6436,0 -7.8452,4.51441 -9.5625,9.0625 l -9.75,-3.75 c 2.8475,-8.55999 9.0955,-15.375 20.1875,-15.375 15.2806,0 20.0625,9.96405 20.0625,17.875 0,6.73033 -3.505,12.61727 -9,18.9375 l -11.1875,12.05 20.8875,0 z"
         id="path3404"
         inkscape:connector-curvature="0"
         sodipodi:nodetypes="cccccccccccccc" />
      <path
         inkscape:connector-curvature="0"
         style="fill:#000000;stroke:none"
         d="m 1691.5,540.5 c -23.2067,0 -23.375,22.41215 -23.375,30.625 0,11.67131 1.5504,29.625 22.875,29.625 20.6519,0 22.8125,-17.59033 22.8125,-29.875 0,-8.94756 -0.4914,-30.375 -22.3125,-30.375 z m -0.5,10.875 c 9.6682,0 10,10.68339 10,19.5625 0,9.13185 -0.4045,19.375 -10.0625,19.375 -9.2328,0 -9.9375,-10.53907 -9.9375,-19.3125 0,-8.19105 0.2896,-19.625 10,-19.625 z"
         id="path3406" />
      <path
         style="fill:#000000;stroke:none"
         d="m 1730,599.56218 0,-44.46517 -11,2.26517 0,-9 16.8674,-7.2 6.3326,0 0,58.4 z"
         id="path3408"
         inkscape:connector-curvature="0"
         sodipodi:nodetypes="cccccccc" />
      <path
         inkscape:connector-curvature="0"
         style="fill:#000000;stroke:none"
         d="m 1773.125,540.3125 c -13.0611,0 -19.5938,8.25993 -19.5938,15.75 0,8.47345 7.2188,12.78125 7.2188,12.78125 0,0 -9.625,3.60747 -9.625,14.96875 0,8.88554 7.3728,17.5 21.9375,17.5 13.432,0 21.8125,-8.14744 21.8125,-17.59375 0,-10.8333 -9.6563,-14.84375 -9.6563,-14.84375 0,0 7.2188,-4.10383 7.2188,-12.40625 0,-9.50058 -8.0628,-16.15625 -19.3125,-16.15625 z m -0.125,9.96875 c 4.4967,0 7.75,2.66921 7.75,6.625 0,4.2188 -3.2808,7.03125 -7.6875,7.03125 -4.2574,0 -7.9688,-2.18844 -7.9688,-7 0,-3.57023 3.0083,-6.65625 7.9063,-6.65625 z m 0.4375,24.03125 c 5.9845,0 8.9687,4.25561 8.9687,8.03125 0,5.27961 -4.2474,8.15625 -9.3437,8.15625 -5.3361,0 -9.2188,-2.65335 -9.2188,-8.09375 0,-5.07598 4.184,-8.09375 9.5938,-8.09375 z"
         id="path3410" />
      <rect
         style="fill:#e61c44;fill-opacity:1;fill-rule:evenodd;stroke:none"
         id="rect3412"
         width="282"
         height="24"
         x="1206"
         y="449.36218" />
      <rect
         style="fill:#060606;fill-opacity:1;fill-rule:evenodd;stroke:none"
         id="rect3414"
         width="22"
         height="168"
         x="1251"
         y="262.36218" />
      <rect
         y="262.36218"
         x="1421.4861"
         height="168"
         width="22"
         id="rect3416"
         style="fill:#00963f;fill-opacity:1;fill-rule:evenodd;stroke:none" />
      <rect
         y="220.03862"
         x="1206.0442"
         height="23.292892"
         width="282"
         id="rect3418"
         style="fill:#0079c2;fill-opacity:1;fill-rule:evenodd;stroke:none" />
      <path
         sodipodi:nodetypes="cccccc"
         inkscape:connector-curvature="0"
         id="path3420"
         d="m 1577.741,93.362183 18.5,0 0,97.628907 -9.25,12.87109 -9.25,-12.58594 z"
         style="fill:#060606;fill-opacity:1;fill-rule:evenodd;stroke:none" />
      <g
         id="g3422"
         style="fill:none;stroke:#000000;stroke-width:9.5"
         transform="matrix(0.93427529,0,0,0.93427529,1282.5,649.74668)">
        <circle
           id="circle3424"
           r="49.25"
           cy="54"
           cx="54"
           sodipodi:cx="54"
           sodipodi:cy="54"
           sodipodi:rx="49.25"
           sodipodi:ry="49.25"
           style="stroke:#0079c2;stroke-opacity:1"
           d="M 103.25,54 C 103.25,81.200024 81.200024,103.25 54,103.25 26.799976,103.25 4.75,81.200024 4.75,54 4.75,26.799976 26.799976,4.75 54,4.75 c 27.200024,0 49.25,22.049976 49.25,49.25 z" />
        <circle
           style="stroke:#060606;stroke-opacity:1"
           id="circle3426"
           r="49.25"
           cy="54"
           cx="171"
           sodipodi:cx="171"
           sodipodi:cy="54"
           sodipodi:rx="49.25"
           sodipodi:ry="49.25"
           d="m 220.25,54 c 0,27.200024 -22.04998,49.25 -49.25,49.25 -27.20002,0 -49.25,-22.049976 -49.25,-49.25 0,-27.200024 22.04998,-49.25 49.25,-49.25 27.20002,0 49.25,22.049976 49.25,49.25 z" />
        <circle
           id="circle3428"
           r="49.25"
           cy="54"
           cx="288"
           sodipodi:cx="288"
           sodipodi:cy="54"
           sodipodi:rx="49.25"
           sodipodi:ry="49.25"
           style="stroke:#e61c44;stroke-opacity:1"
           d="m 337.25,54 c 0,27.200024 -22.04998,49.25 -49.25,49.25 -27.20002,0 -49.25,-22.049976 -49.25,-49.25 0,-27.200024 22.04998,-49.25 49.25,-49.25 27.20002,0 49.25,22.049976 49.25,49.25 z" />
        <circle
           id="circle3430"
           r="49.25"
           cy="104"
           cx="112.5"
           sodipodi:cx="112.5"
           sodipodi:cy="104"
           sodipodi:rx="49.25"
           sodipodi:ry="49.25"
           style="stroke:#f9b31f;stroke-opacity:1"
           d="m 161.75,104 c 0,27.20002 -22.04998,49.25 -49.25,49.25 -27.200024,0 -49.25,-22.04998 -49.25,-49.25 0,-27.200024 22.049976,-49.25 49.25,-49.25 27.20002,0 49.25,22.049976 49.25,49.25 z" />
        <circle
           id="circle3432"
           r="49.25"
           cy="104"
           cx="229.5"
           sodipodi:cx="229.5"
           sodipodi:cy="104"
           sodipodi:rx="49.25"
           sodipodi:ry="49.25"
           style="stroke:#00963f;stroke-opacity:1"
           d="m 278.75,104 c 0,27.20002 -22.04998,49.25 -49.25,49.25 -27.20002,0 -49.25,-22.04998 -49.25,-49.25 0,-27.200024 22.04998,-49.25 49.25,-49.25 27.20002,0 49.25,22.049976 49.25,49.25 z" />
        <path
           id="path3434"
           d="m 93.4,24.45 a 49.25,49.25 0 0 1 0,59.1"
           inkscape:connector-curvature="0"
           style="stroke:#0079c2;stroke-opacity:1" />
        <path
           style="stroke:#060606;stroke-opacity:1"
           id="path3436"
           d="m 210.4,24.45 a 49.25,49.25 0 0 1 0,59.1 M 171,103.25 A 49.25,49.25 0 0 1 141.45,93.4"
           inkscape:connector-curvature="0" />
        <path
           id="path3438"
           d="M 288,103.25 A 49.25,49.25 0 0 1 258.45,93.4"
           inkscape:connector-curvature="0"
           style="stroke:#e61c44;stroke-opacity:1" />
      </g>
    </g>
  </g>
</svg>
